<svg xmlns="http://www.w3.org/2000/svg" width="150" height="40" viewBox="0 0 150 40">
  <rect rx="8" width="150" height="40" fill="#FFDD00"/>
  <g transform="translate(12,6)" fill="#000">
    <!-- coffee cup icon -->
    <path d="M5 4c0-.6.4-1 1-1h1.5l.5-2h5l.5 2H15c.6 0 1 .4 1 1v1H5V4z" opacity=".85"/>
    <path d="M5.5 7h10l-1 14c-.1 1-.9 2-2 2H8.5c-1.1 0-1.9-1-2-2L5.5 7z" opacity=".85"/>
    <path d="M15.5 8h1.5c1.4 0 2.5 1.1 2.5 2.5S18.4 13 17 13h-1l-.5-5z" opacity=".85"/>
    <path d="M7 25h7v3H7z" opacity=".85"/>
  </g>
  <text x="42" y="25.5" font-family="Arial,Helvetica,sans-serif" font-size="13" font-weight="700" fill="#000">Buy me a coffee</text>
</svg>
